<?xml version="1.0" encoding="utf-8"?>
<!-- Generator: Adobe Illustrator 21.0.0, SVG Export Plug-In . SVG Version: 6.00 Build 0)  -->
<svg version="1.1" id="Layer_1" xmlns="http://www.w3.org/2000/svg" xmlns:xlink="http://www.w3.org/1999/xlink" x="0px" y="0px"
	 viewBox="0 0 463 81" style="enable-background:new 0 0 463 81;" xml:space="preserve">
<style type="text/css">
	.st0{fill:#002D3F;}
	.st1{fill:#4E9A92;}
</style>
<g>
	<g>
		<path class="st0" d="M58,77.8l-6.8-10.3c-2.5,0.7-5,1.1-7.7,1.1C28.3,68.6,16,56.3,16,41.1c0-15.2,12.3-27.5,27.5-27.5
			c5.9,0,11.4,1.9,15.9,5.1l10.2-7.1c-7-6.2-16.1-9.9-26.1-9.9C21.8,1.7,4.1,19.4,4.1,41.1c0,21.8,17.6,39.4,39.4,39.4
			C48.7,80.5,53.5,79.5,58,77.8z"/>
		<path class="st1" d="M69.8,44.8l-6.1,4.1l-4.8-7.2l10.5-7.1l10.2-6.9c-0.7-2.1-1.6-4.1-2.6-6c-0.3-0.6-0.7-1.1-1-1.7
			c-0.7-1-1.4-1.9-2.1-2.9l-9.8,6.6L41.4,39.1l16.8,24.8l6.4,9.5c3.6-2.5,6.8-5.6,9.4-9.2l-5-7.2L81,48.4c0.5-2.5,0.7-5,0.7-7.6
			c0-1.4-0.1-2.7-0.2-4.1L69.8,44.8z"/>
		<g>
			<path class="st0" d="M80.8,11.7c-2.9,0-5-2.2-5-5c0-2.8,2.2-5,5-5c3,0,5.1,2.2,5.1,5C85.8,9.5,83.7,11.7,80.8,11.7z M80.7,2.2
				c-2.6,0-4.5,2-4.5,4.5c0,2.5,1.9,4.5,4.5,4.5c2.6,0,4.5-1.9,4.5-4.5C85.3,4.1,83.4,2.2,80.7,2.2z M82.6,9.8L81,7.2
				c-0.2,0-0.4,0-0.6,0h-0.7v2.5h-1V3.6h2c0.7,0,1.2,0.1,1.5,0.2c0.6,0.2,1,0.8,1,1.6c0,0.8-0.5,1.4-1.3,1.7l1.7,2.8H82.6z
				 M80.5,6.4c0.6,0,1-0.1,1.2-0.2c0.4-0.2,0.5-0.5,0.5-0.9c0-0.4-0.2-0.8-0.6-0.9c-0.2-0.1-0.6-0.1-1.1-0.1h-0.9v2.1H80.5z"/>
		</g>
	</g>
	<g>
		<path class="st0" d="M179.4,7L160,51h7.7l4.2-9.9h22.2l4.2,9.9h7.9L187,7H179.4z M174.7,34.5l8.3-19.6l8.3,19.6H174.7z"/>
		<path class="st0" d="M249.8,22c0-9.6-6.5-15-17.7-15h-17.9v44h7.4V37.7h10.4c0.7,0,1.4,0,2-0.1l8.1,13.3h8.4l-9.9-14.7
			C246.5,34,249.8,29,249.8,22z M232.1,31.1h-10.4V13.6h10.4c6.8,0,10.7,2.8,10.7,8.6C242.8,28.2,238.9,31.1,232.1,31.1z"/>
		<path class="st0" d="M279.8,7h-18.1v44h17.9c13.3,0,23-9.3,23-22C302.6,16.2,293,7,279.8,7z M280,44.3h-10.8V13.6h10.5
			c8.7,0,15.4,6.4,15.4,15.4C295.1,38,288.5,44.3,280,44.3z"/>
		<rect x="312.6" y="7" class="st0" width="7.4" height="44"/>
		<polygon class="st0" points="364.5,38.6 340.9,7 333.6,7 333.6,51 341,51 341,19.4 364.5,51 371.8,51 371.8,7 364.5,7 		"/>
		<path class="st0" d="M399.2,7l-19.4,44h7.7l4.2-9.9h22.2l4.2,9.9h7.9L406.8,7H399.2z M394.5,34.5l8.3-19.6l8.3,19.6H394.5z"/>
		<polygon class="st0" points="441.4,44.3 441.4,7 434,7 434,51 460.5,51 460.5,44.3 		"/>
		<g>
			<path class="st1" d="M126.4,63.7v2.3h-4.6v2.3h3.4v2.3h-3.4v2.3v2.3h-2.3v-4.6v-2.3v-4.6H126.4z"/>
			<path class="st1" d="M128,63.7h2.3v11.4H128V63.7z"/>
			<path class="st1" d="M139,70v-6.3h2.3v11.6l-6.8-6.5v6.3h-2.3V63.4L139,70z"/>
			<path class="st1" d="M146.1,73.3c-0.3,0.6-0.5,1.2-0.8,1.7h-2.5l5.2-11.6l5.2,11.6h-2.5c-0.3-0.6-0.5-1.2-0.8-1.7L146.1,73.3
				L146.1,73.3z M149,71.3l-1-2.4l-1,2.4H149z"/>
			<path class="st1" d="M161.6,70v-6.3h2.3v11.6l-6.8-6.5v6.3h-2.3V63.4L161.6,70z"/>
			<path class="st1" d="M171.3,63.6c0.8,0,1.5,0.1,2.2,0.5c0.7,0.3,1.3,0.7,1.8,1.2l-1.6,1.6c-0.7-0.7-1.5-1-2.4-1
				c-1,0-1.8,0.3-2.4,1c-0.7,0.7-1,1.5-1,2.4c0,1,0.3,1.8,1,2.4c0.7,0.7,1.5,1,2.4,1c1,0,1.8-0.3,2.4-1l1.6,1.6
				c-0.5,0.5-1.1,0.9-1.8,1.2c-0.7,0.3-1.4,0.5-2.2,0.5c-1.6,0-2.9-0.6-4.1-1.7c-1.1-1.1-1.7-2.5-1.7-4.1c0-1.6,0.6-2.9,1.7-4.1
				C168.3,64.2,169.7,63.6,171.3,63.6L171.3,63.6z"/>
			<path class="st1" d="M176.9,63.7h2.3v11.4h-2.3V63.7z"/>
			<path class="st1" d="M184,73.3c-0.3,0.6-0.5,1.2-0.8,1.7h-2.5l5.2-11.6l5.2,11.6h-2.5c-0.3-0.6-0.5-1.2-0.8-1.7L184,73.3
				L184,73.3z M187,71.3l-1-2.4l-1,2.4H187z"/>
			<path class="st1" d="M195,63.7v9.1h4.6v2.3h-6.8V63.7H195z"/>
			<path class="st1" d="M211.6,63.6c0.8,0,1.5,0.1,2.2,0.5c0.7,0.3,1.3,0.7,1.8,1.2l-1.6,1.6c-0.7-0.7-1.5-1-2.4-1
				c-1,0-1.8,0.3-2.4,1c-0.7,0.7-1,1.5-1,2.4c0,1,0.3,1.8,1,2.4c0.7,0.7,1.5,1,2.4,1c1,0,1.8-0.3,2.4-1l1.6,1.6
				c-0.5,0.5-1.1,0.9-1.8,1.2c-0.7,0.3-1.4,0.5-2.2,0.5c-1.6,0-2.9-0.6-4.1-1.7c-1.1-1.1-1.7-2.5-1.7-4.1c0-1.6,0.6-2.9,1.7-4.1
				C208.6,64.2,210,63.6,211.6,63.6L211.6,63.6z"/>
			<path class="st1" d="M226.8,65.3c1.1,1.1,1.7,2.5,1.7,4.1c0,1.6-0.6,2.9-1.7,4.1s-2.5,1.7-4.1,1.7s-2.9-0.6-4.1-1.7
				c-1.1-1.1-1.7-2.5-1.7-4.1c0-1.6,0.6-2.9,1.7-4.1c1.1-1.1,2.5-1.7,4.1-1.7S225.7,64.2,226.8,65.3z M220.3,66.9
				c-0.7,0.7-1,1.5-1,2.4c0,1,0.3,1.8,1,2.4c0.7,0.7,1.5,1,2.4,1c0.9,0,1.8-0.3,2.4-1c0.7-0.7,1-1.5,1-2.4c0-0.9-0.3-1.8-1-2.4
				c-0.7-0.7-1.5-1-2.4-1C221.8,65.9,221,66.2,220.3,66.9z"/>
			<path class="st1" d="M235.6,71.1l5.6-7.6v11.6h-2.3v-4.7l-3.3,4.5l-3.3-4.5v4.7h-2.3V63.4L235.6,71.1z"/>
			<path class="st1" d="M243,71.6v-4v-4h2.3h1.7c1.1,0,2,0.4,2.8,1.2c0.8,0.8,1.2,1.7,1.2,2.8c0,1.1-0.4,2-1.2,2.8
				c-0.8,0.8-1.7,1.2-2.8,1.2h-1.7v3.4H243V71.6z M247,69.4c0.5,0,0.9-0.2,1.2-0.5c0.3-0.3,0.5-0.7,0.5-1.2c0-0.5-0.2-0.9-0.5-1.2
				c-0.3-0.3-0.7-0.5-1.2-0.5h-1.7v1.7v1.7L247,69.4z"/>
			<path class="st1" d="M253.2,73.3c-0.3,0.6-0.5,1.2-0.8,1.7H250l5.2-11.6l5.2,11.6h-2.5c-0.3-0.6-0.5-1.2-0.8-1.7L253.2,73.3
				L253.2,73.3z M256.2,71.3l-1-2.4l-1,2.4H256.2z"/>
			<path class="st1" d="M268.8,70v-6.3h2.3v11.6l-6.8-6.5v6.3h-2.3V63.4L268.8,70z"/>
			<path class="st1" d="M275.2,63.7l2,3.6l2-3.6h2.6l-3.4,6.3v5.1h-2.3v-5.1l-3.4-6.3H275.2z"/>
			<path class="st0" d="M291.1,59.7v17h-1.6v-17H291.1z"/>
			<path class="st1" d="M301.4,63.7v9.1h4.6v2.3h-6.8V63.7H301.4z"/>
			<path class="st1" d="M307.6,63.7h2.3v11.4h-2.3V63.7z"/>
			<path class="st1" d="M317.3,71.1l5.6-7.6v11.6h-2.3v-4.7l-3.3,4.5l-3.3-4.5v4.7h-2.3V63.4L317.3,71.1z"/>
			<path class="st1" d="M324.7,63.7h2.3v11.4h-2.3V63.7z"/>
			<path class="st1" d="M333.9,63.7h2.9v2.3h-2.9v9.1h-2.3v-9.1h-2.9v-2.3h2.9H333.9z"/>
			<path class="st1" d="M345.3,63.7v2.3h-4.6v2.3h3.4v2.3h-3.4v2.3h4.6v2.3h-4.6h-2.3V63.7H345.3z"/>
			<path class="st1" d="M349.9,63.7c1.6,0,3,0.6,4.2,1.7c2,2,2,6,0,8c-1.1,1.1-2.6,1.7-4.2,1.7h-2.8V63.7L349.9,63.7L349.9,63.7z
				 M349.9,72.8c0.9,0,1.8-0.3,2.5-0.9s0.9-1.5,0.9-2.5c0-0.9-0.3-1.8-0.9-2.5c-0.7-0.7-1.5-0.9-2.5-0.9h-0.5v6.8H349.9L349.9,72.8z
				"/>
			<path class="st1" d="M362.1,71.6v-4v-4h2.3h1.7c1.1,0,2,0.4,2.8,1.2c0.8,0.8,1.2,1.7,1.2,2.8c0,1.1-0.4,2-1.2,2.8
				c-0.8,0.8-1.7,1.2-2.8,1.2h-1.7v3.4h-2.3V71.6z M366.1,69.4c0.5,0,0.9-0.2,1.2-0.5c0.3-0.3,0.5-0.7,0.5-1.2
				c0-0.5-0.2-0.9-0.5-1.2c-0.3-0.3-0.7-0.5-1.2-0.5h-1.7v1.7v1.7L366.1,69.4z"/>
			<path class="st1" d="M372.3,73.3c-0.3,0.6-0.5,1.2-0.8,1.7H369l5.2-11.6l5.2,11.6h-2.5c-0.3-0.6-0.5-1.2-0.8-1.7L372.3,73.3
				L372.3,73.3z M375.2,71.3l-1-2.4l-1,2.4H375.2z"/>
			<path class="st1" d="M381,63.6h3.7c1.1,0,2.2,0.4,3,1.2c0.8,0.8,1.1,1.5,1.1,2.6v0.4c0,0.8-0.2,1.5-0.7,2.1
				c-0.5,0.7-0.9,0.9-1.6,1.2l2.6,4h-2.8l-2.9-4.5v4.5H381L381,63.6z M384.9,69.1c0.5,0,0.7-0.1,1-0.5c0.3-0.3,0.5-0.7,0.5-1.2
				c0-0.5-0.1-0.8-0.5-1.1c-0.3-0.3-0.9-0.5-1.4-0.5h-1.3v3.2L384.9,69.1z"/>
			<path class="st1" d="M395.8,63.7h2.9v2.3h-2.9v9.1h-2.3v-9.1h-2.8v-2.3h2.8H395.8z"/>
			<path class="st1" d="M407.2,70v-6.3h2.3v11.6l-6.8-6.5v6.3h-2.3V63.4L407.2,70z"/>
			<path class="st1" d="M418.2,63.7v2.3h-4.6v2.3h3.4v2.3h-3.4v2.3h4.6v2.3h-4.6h-2.3V63.7H418.2z"/>
			<path class="st1" d="M420,63.6h3.7c1.1,0,2.2,0.4,3,1.2c0.8,0.8,1.1,1.5,1.1,2.6v0.4c0,0.8-0.2,1.5-0.7,2.1
				c-0.5,0.7-0.9,0.9-1.6,1.2l2.6,4h-2.8l-2.9-4.5v4.5H420L420,63.6z M423.9,69.1c0.5,0,0.7-0.1,1-0.5c0.3-0.3,0.5-0.7,0.5-1.2
				c0-0.5-0.1-0.8-0.5-1.1c-0.3-0.3-0.9-0.5-1.4-0.5h-1.3v3.2L423.9,69.1z"/>
			<path class="st1" d="M433.1,72.8c0.6,0,1.2-0.5,1.2-1.2c0-0.5-0.2-0.8-0.6-0.9c-0.8-0.3-0.6-0.2-1.4-0.5
				c-0.8-0.3-1.6-0.9-2.1-1.6c-0.3-0.4-0.5-0.9-0.5-1.6c0-0.9,0.3-1.8,1-2.4c0.7-0.7,1.5-1,2.4-1c0.9,0,1.8,0.3,2.4,1
				c0.7,0.7,1,1.5,1,2.4h-2.3c0-0.6-0.5-1.1-1.1-1.1c-0.6,0-1.2,0.5-1.2,1.2c0,0.4,0.2,0.7,0.5,0.9c0.7,0.4,0.6,0.4,1.4,0.6
				c0.9,0.3,1.7,0.8,2.2,1.5c0.3,0.4,0.5,0.9,0.5,1.6c0,1-0.3,1.8-1,2.4c-0.7,0.7-1.5,1-2.4,1c-1,0-1.8-0.3-2.4-1
				c-0.7-0.7-1-1.5-1-2.4h2.3C432,72.3,432.5,72.8,433.1,72.8L433.1,72.8z"/>
			<path class="st1" d="M440.7,63.7v4.6h3.4v-4.6h2.3v11.4h-2.3v-4.6h-3.4v4.6h-2.3V63.7H440.7z"/>
			<path class="st1" d="M448.2,63.7h2.3v11.4h-2.3V63.7z"/>
			<path class="st1" d="M452.4,71.6v-4v-4h2.3h1.7c1.1,0,2,0.4,2.8,1.2c0.8,0.8,1.2,1.7,1.2,2.8c0,1.1-0.4,2-1.2,2.8
				c-0.8,0.8-1.7,1.2-2.8,1.2h-1.7v3.4h-2.3V71.6z M456.4,69.4c0.5,0,0.9-0.2,1.2-0.5c0.3-0.3,0.5-0.7,0.5-1.2
				c0-0.5-0.2-0.9-0.5-1.2c-0.3-0.3-0.7-0.5-1.2-0.5h-1.7v1.7v1.7L456.4,69.4z"/>
		</g>
		<g>
			<g>
				<path class="st0" d="M154.5,14.1l-4.3,5.4c-3.2-3.4-7.7-5.5-12.2-5.5c-8.7,0-15.6,6.7-15.6,15.3c0,8.6,6.9,15.4,15.6,15.4
					c4.4,0,8.9-2,12.2-5.2l4.4,4.9c-4.4,4.4-10.7,7.2-16.9,7.2c-12.8,0-22.7-9.7-22.7-22.2c0-12.4,10-22,23-22
					C144.1,7.4,150.3,9.9,154.5,14.1z"/>
			</g>
		</g>
	</g>
</g>
</svg>
